<?xml version="1.0" standalone="no"?>
<!DOCTYPE svg PUBLIC "-//W3C//DTD SVG 20010904//EN"
 "http://www.w3.org/TR/2001/REC-SVG-20010904/DTD/svg10.dtd">
<svg version="1.0" xmlns="http://www.w3.org/2000/svg"
 width="520.000000pt" height="520.000000pt" viewBox="0 0 520.000000 520.000000"
 preserveAspectRatio="xMidYMid meet">
<metadata>
Created by potrace 1.11, written by Peter Selinger 2001-2013
</metadata>
<g transform="translate(0.000000,520.000000) scale(0.100000,-0.100000)"
fill="#000000" stroke="none">
<path d="M0 2600 l0 -2600 2600 0 2600 0 0 2600 0 2600 -2600 0 -2600 0 0
-2600z m3120 1095 l0 -245 -853 0 c-979 0 -925 4 -1013 -84 -60 -59 -84 -123
-84 -221 0 -129 52 -225 148 -272 l57 -28 665 -5 c645 -5 667 -6 743 -27 286
-81 485 -276 558 -549 29 -107 32 -326 5 -429 -25 -98 -94 -239 -149 -306 -98
-120 -279 -224 -447 -259 -90 -19 -142 -20 -1072 -20 l-978 0 0 245 0 245 993
2 992 3 41 22 c58 31 119 103 135 160 23 79 17 188 -13 253 -30 66 -66 103
-133 139 l-50 26 -670 6 c-607 5 -676 7 -735 23 -308 86 -515 308 -567 606
-20 114 -12 307 17 410 79 280 311 480 625 538 28 6 426 10 918 11 l867 1 0
-245z m1410 -1100 l0 -1345 -245 0 -245 0 0 1100 0 1100 -220 0 -220 0 0 245
0 245 465 0 465 0 0 -1345z"/>
</g>
</svg>
